<svg width="197" height="43" viewBox="0 0 197 43" fill="none" xmlns="http://www.w3.org/2000/svg">
<path d="M72.2166 5.69457C72.2166 4.91564 72.1708 4.36582 72.2166 3.81599C72.2624 3.22034 72.4457 3.08287 73.0414 3.17451C73.3621 3.22033 73.5454 3.08287 73.6828 2.80796C73.7745 2.62468 73.9577 2.3956 74.141 2.30396C74.4159 2.1665 74.7367 2.25814 74.9199 2.53305C75.2865 3.17452 75.6531 3.77016 75.928 4.41163C76.9818 6.97751 77.6233 9.68085 78.3106 12.3384C78.6771 13.8504 79.0437 15.3625 79.4102 16.8745C79.731 18.2491 80.0975 19.6236 80.4183 21.044C80.6474 22.1437 80.8306 23.2434 81.0139 24.343C81.0597 24.5721 81.1972 24.9845 81.2888 24.9845C81.6096 24.9845 81.5637 24.6179 81.6096 24.3888C82.2052 22.327 82.8009 20.2651 83.3965 18.2032C84.6795 13.5755 86.4206 9.13101 88.2075 4.68654C88.4825 3.95343 88.8948 3.26614 89.3072 2.62467C89.628 2.12066 89.9029 2.07484 90.4069 2.48722C90.7734 2.80795 91.0942 2.80796 91.5523 2.57886C92.1938 2.21231 92.652 2.44141 92.9728 3.1287C93.2019 3.67853 93.4309 4.22835 93.6142 4.77818C93.7059 5.00728 93.7059 5.23638 93.7059 5.46547C93.5684 7.80226 93.3851 10.1849 93.2477 12.5217C93.2018 13.4839 93.156 14.4461 93.0644 15.3625C92.7895 18.0658 92.4687 20.7691 92.148 23.5183C91.8731 25.9925 91.5524 28.4209 91.3691 30.8952C91.2316 32.3156 91.0942 33.6902 90.4985 35.0189C90.3152 35.4313 90.1778 35.9353 90.0403 36.3477C89.9487 36.6226 89.857 36.8975 89.6738 37.1266C89.5363 37.2641 89.2614 37.4474 89.0781 37.4015C88.8948 37.3557 88.7116 37.1266 88.6657 36.8975C88.5741 36.531 88.6199 36.1644 88.6199 35.7979C88.6199 35.6604 88.6658 35.5229 88.6199 35.3397C88.6199 35.248 88.5283 35.2022 88.4825 35.1564C88.4366 35.2022 88.2992 35.248 88.2992 35.3397C88.2076 35.5688 88.2075 35.7979 88.1159 36.027C88.0701 36.1186 87.9326 36.2561 87.841 36.2561C87.7494 36.2561 87.5661 36.1186 87.5203 36.027C87.4286 35.8895 87.3828 35.6604 87.3828 35.523C87.4286 34.3317 87.4744 33.1862 87.6119 32.0407C88.1159 27.7337 88.6657 23.4266 89.1697 19.1196C89.353 17.6076 89.5363 16.0956 89.6738 14.5835C89.7196 14.1712 89.6279 13.7588 89.5821 13.3464C89.5821 13.2548 89.4447 13.1631 89.353 13.0715C89.2614 13.1631 89.1697 13.209 89.1697 13.3006C88.8948 14.0337 88.5741 14.7668 88.345 15.4999C87.5203 17.8825 86.8788 20.3568 85.9166 22.6935C84.7711 25.4885 83.8547 28.3751 82.755 31.1701C82.3427 32.3156 81.9761 33.4611 81.6096 34.6066C81.5637 34.7898 81.4721 34.9731 81.4263 35.1106C81.0597 35.7979 80.5099 35.8895 80.0059 35.2939C79.9142 35.2022 79.8226 35.0647 79.7768 34.9273C79.227 33.1861 78.5397 31.445 78.2189 29.6123C77.9898 28.2377 77.8524 26.8631 77.6233 25.4885C77.44 24.5263 77.2109 23.6099 76.9818 22.6477C76.5694 20.9066 76.1112 19.1196 75.7447 17.3785C75.5614 16.4621 75.4698 15.5457 75.2865 14.6293C75.2865 14.5377 75.1949 14.4461 75.149 14.3544C75.0574 14.4461 74.9658 14.5377 74.9199 14.6293C74.8283 15.2708 74.7367 15.9123 74.645 16.5079C74.4159 18.2033 74.2327 19.9444 73.9119 21.5939C73.4079 24.2972 72.6748 26.9547 71.85 29.5664C71.4835 30.8036 71.2544 32.0407 70.842 33.2778C70.5213 34.2858 70.1089 35.2938 69.6965 36.3019C69.5591 36.6226 69.2842 36.9433 69.0551 37.1724C68.9176 37.3099 68.5969 37.4015 68.4136 37.3557C68.2303 37.2641 68.1387 36.9892 68.0929 36.8059C68.0471 36.6226 68.0929 36.4393 68.0929 36.2561C68.1387 35.1564 68.1845 34.0109 68.1845 32.9112C68.1845 31.8116 68.4136 30.7577 68.6427 29.7039C68.9176 28.6042 69.2383 27.4587 69.33 26.3133C69.6049 22.6935 70.4755 19.1655 71.0253 15.5916C71.2086 14.4003 71.3002 13.2089 71.4377 12.0635C71.5293 11.3762 71.7126 10.7347 71.85 10.0932C72.0791 8.53538 72.3082 7.02333 72.2166 5.69457Z" fill="#EEEEEE"/>
<path d="M49.6819 28.65C49.8193 27.0464 50.0026 25.2594 50.1859 23.4724C50.415 21.2731 50.6441 19.0738 50.9648 16.8745C51.2856 14.6751 51.6979 12.4758 52.0645 10.2765C52.2478 9.08517 52.7976 8.16879 53.714 7.38987C55.0428 6.24438 56.2799 5.05308 57.4254 3.72432C57.8836 3.17449 58.3417 2.67048 58.8457 2.21229C59.8996 1.25008 61.7324 1.43336 62.6488 2.44139C64.2983 4.31998 65.7645 6.2902 66.8641 8.53535C67.0932 9.03936 67.2765 9.54337 67.1849 10.139C66.8183 12.6591 66.4976 15.1333 66.131 17.6534C65.7645 20.2651 65.4437 22.831 65.0772 25.4427C64.8939 26.634 64.7564 27.8253 64.5274 29.0166C64.3441 30.0246 63.9317 30.941 63.2902 31.7199C62.0073 33.2778 60.7243 34.8814 59.4872 36.4851C58.8458 37.3099 58.021 37.5848 57.013 37.4932C56.8297 37.4932 56.6006 37.4015 56.4173 37.4015C55.8217 37.264 55.3635 37.4015 55.0427 37.9513C54.9511 38.0888 54.8595 38.1804 54.7678 38.2721C53.8973 39.3259 53.0725 38.8219 52.6143 37.9513C52.3852 37.539 52.3852 37.0808 52.2019 36.6226C52.0187 36.0727 51.7896 35.5229 51.6063 34.9731C51.423 34.4233 51.1481 33.9192 51.0565 33.3694C50.8732 32.4988 50.6899 31.6741 50.1859 30.8952C49.8193 30.2995 49.7277 29.6122 49.6819 28.65ZM63.1069 9.31428C63.0153 8.90191 62.9695 8.53535 62.7862 8.1688C62.5571 7.61897 62.2364 7.11496 61.9156 6.65677C61.7782 6.42767 61.5491 6.19856 61.3658 6.01529C60.9076 5.60291 60.5869 5.55709 60.0829 5.92364C59.7163 6.19856 59.3498 6.47349 59.029 6.79422C58.2043 7.71061 57.3795 8.62698 56.5548 9.58919C56.0966 10.0932 55.7759 10.643 55.5926 11.2845C55.1802 12.7507 54.9969 14.2628 54.9053 15.7748C54.8595 16.737 54.9053 17.6992 54.8137 18.6156C54.6762 19.8527 54.3555 21.0898 54.218 22.3269C53.9431 24.2514 53.714 26.2216 53.5307 28.146C53.4849 28.65 53.6223 29.154 53.8056 29.6122C54.0805 30.3453 54.4471 31.0326 54.8137 31.6741C55.1344 32.2239 55.4551 32.7279 55.8675 33.1861C56.1882 33.5985 56.6006 33.6443 57.0588 33.3236C57.2879 33.1861 57.4712 33.0029 57.6086 32.8196C58.2043 32.1781 58.7541 31.4908 59.3498 30.8494C60.1745 29.933 60.6327 28.8791 60.816 27.6878C61.0451 26.0383 61.2284 24.3888 61.4116 22.7393C61.6865 20.4484 61.9157 18.2032 62.2364 15.9122C62.5113 13.7587 62.832 11.5594 63.1069 9.31428Z" fill="#EEEEEE"/>
<path d="M41.9386 3.8159C43.0841 3.8159 44.2296 3.8159 45.3293 3.8159C46.3373 3.8159 46.7955 4.36571 46.4747 5.37374C46.2456 6.10685 45.9707 6.83998 45.65 7.57309C44.4129 10.3681 43.1299 13.163 41.847 15.958C41.1139 17.5159 40.2891 19.0737 39.5102 20.6316C38.4564 22.7393 37.3567 24.8011 36.3945 26.9546C35.4781 29.0165 34.6534 31.17 33.8286 33.2319C33.6453 33.6901 33.8744 33.9192 34.3784 33.8275C35.4323 33.7359 36.4403 33.5984 37.4942 33.5068C38.8687 33.3693 40.2433 33.2319 41.5721 33.0486C42.855 32.9112 44.138 32.7279 45.4209 32.5904C45.7416 32.5446 46.0624 32.5446 46.3373 32.5446C46.6122 32.5446 46.8871 32.6821 46.9329 32.957C46.9329 33.1861 46.8871 33.5068 46.7038 33.6443C46.3831 33.8734 46.2456 34.1483 46.2456 34.5148C46.2456 34.973 45.9707 35.3396 45.5125 35.477C44.7794 35.7061 44.0463 35.8436 43.359 36.0727C42.7176 36.256 42.0761 36.4392 41.4346 36.7142C40.7015 37.0349 40.0142 37.1723 39.2353 36.9891C38.3189 36.76 37.4942 36.9891 36.7611 37.5847C36.3945 37.8596 36.0279 38.1346 35.5697 38.272C35.0657 38.5011 34.5159 38.4095 34.1035 37.9513C33.9202 37.768 33.737 37.6305 33.5995 37.4473C33.2788 37.0349 32.8664 37.0349 32.4082 37.2182C31.7209 37.4931 31.0336 37.4931 30.3005 37.264C29.7507 37.0349 29.4758 36.6683 29.5674 36.1185C29.7049 35.2938 29.8881 34.5148 30.2089 33.7359C30.7587 32.2697 31.446 30.8493 32.0875 29.3831C33.0039 27.2754 33.9202 25.2135 34.7908 23.1058C35.3865 21.6854 35.8447 20.2192 36.532 18.8446C37.2651 17.3326 37.7691 15.7289 38.4105 14.171C38.8687 13.0714 39.4186 12.0634 39.9226 11.0095C40.4724 9.81823 41.0681 8.67274 41.6179 7.48144C41.6637 7.3898 41.7095 7.29816 41.7554 7.1607C41.847 6.88578 41.8012 6.74833 41.4804 6.70251C40.6557 6.61087 39.8768 6.65669 39.0978 6.9316C38.5022 7.1607 37.9065 7.29816 37.3109 7.3898C36.8527 7.43562 36.3945 7.6189 35.9363 7.80218C35.249 8.12292 34.5617 8.21455 33.9202 7.71054C33.5537 7.43562 33.1413 7.3898 32.7289 7.3898C32.3624 7.3898 32.0417 7.43563 31.6751 7.34399C31.4918 7.29817 31.2627 7.11488 31.1711 6.9316C31.0795 6.65669 31.2627 6.4276 31.5377 6.33596C31.6293 6.29014 31.7209 6.24433 31.8584 6.19851C32.3624 6.01523 32.3166 6.01522 32.0875 5.55702C32.0417 5.41957 32.0875 5.14465 32.1791 5.00719C32.3624 4.82391 32.6373 4.68646 32.9122 4.64064C34.241 4.45736 35.6156 4.27408 36.9443 4.18245C38.548 4.04499 40.1517 3.90753 41.7554 3.8159C41.9386 3.77008 41.9386 3.8159 41.9386 3.8159Z" fill="#EEEEEE"/>
<path d="M0.747021 36.256C0.83866 35.5229 0.976123 34.6065 1.06776 33.6901C1.20522 32.1781 1.29685 30.7118 1.43431 29.1998C1.66341 27.0921 1.98414 24.9386 2.30487 22.8309C2.90053 19.257 3.49618 15.6373 4.13765 12.0634C4.64166 9.36004 5.28314 6.65669 5.87879 3.95335C6.06207 3.08279 6.33697 2.21223 6.61189 1.38748C6.70352 1.11257 6.79517 0.837647 6.97845 0.608551C7.07009 0.471093 7.25336 0.425257 7.39082 0.333618C7.48246 0.471076 7.57409 0.654353 7.57409 0.791811C7.57409 1.02091 7.48246 1.25 7.48246 1.4791C7.48246 1.57074 7.5741 1.7082 7.61992 1.7082C8.07811 1.84566 8.16975 2.02895 8.12393 2.53297C8.07811 3.0828 7.98648 3.63262 7.94066 4.18245C7.94066 4.27409 7.94066 4.36572 7.94066 4.45736C7.98648 4.41154 8.07811 4.36573 8.12393 4.2741C8.44467 3.95336 8.71958 4.04498 8.81122 4.45736C8.85704 4.68645 8.90286 4.91555 8.85704 5.14465C8.35303 8.81019 7.84901 12.4757 7.29918 16.1413C6.97844 18.2948 6.61189 20.4483 6.29116 22.6018C6.01624 24.3888 5.78714 26.1757 5.55805 27.9168C5.46641 28.65 5.37477 29.3831 5.28313 30.162C5.23731 30.4369 5.23731 30.666 5.23731 30.9409C5.23731 31.5366 5.32895 31.6282 5.83297 31.3533C6.79517 30.8951 7.75737 30.4369 8.67375 29.9329C10.9189 28.7416 13.1641 27.4587 15.455 26.2674C15.9132 26.0383 16.5089 25.9466 17.0129 25.7633C17.4252 25.6259 17.8376 25.5342 18.2042 25.3968C18.754 25.2593 18.754 25.2593 18.9831 25.8092C18.9831 25.855 19.1206 25.9008 19.1664 25.9008C19.3955 25.855 19.5788 25.7633 19.8079 25.7633C19.9911 25.7633 20.266 25.9008 20.3577 26.0383C20.4035 26.1299 20.3119 26.4048 20.1744 26.5423C19.9911 26.7255 19.762 26.863 19.8995 27.2296C19.9453 27.367 19.5788 27.5961 19.4871 27.8252C19.3955 28.0085 19.4871 28.2834 19.4413 28.4667C19.3955 28.6041 19.2122 28.6958 19.0747 28.7416C17.4711 29.4289 15.9132 30.162 14.2637 30.7576C12.7975 31.2617 11.6062 32.0864 10.644 33.2777C10.2774 33.7817 9.7276 34.0566 9.13195 34.1941C8.67375 34.3316 8.21556 34.5606 7.80319 34.7897C7.48246 34.973 7.11591 35.2021 6.74935 35.1105C6.19952 34.973 5.83296 35.2021 5.51223 35.6603C5.19149 36.1185 4.87075 36.6225 4.55002 37.0349C4.18346 37.4931 3.81691 37.9971 3.22126 38.2262C2.71725 38.4095 2.53398 38.3637 2.16742 37.9513C1.98414 37.768 1.75505 37.5847 1.52595 37.5389C0.792846 37.4014 0.655382 37.264 0.747021 36.256Z" fill="#EEEEEE"/>
<path d="M21.5491 36.256C21.5949 34.1025 21.9156 31.9948 22.1905 29.8413C22.5113 27.4128 22.7862 24.9386 23.0611 22.4644C23.1528 21.7771 23.2902 21.0898 23.3818 20.4025C23.7026 17.9282 24.0233 15.454 24.3441 12.9798C24.619 11.147 24.8939 9.26838 25.1688 7.43561C25.3063 6.42758 25.3979 5.41956 25.5812 4.45735C25.6728 3.8617 25.9019 3.31187 26.131 2.71622C26.2685 2.39549 26.4517 2.12059 26.9099 2.30387C26.9558 2.30387 27.139 2.16641 27.139 2.07477C27.2307 1.79985 27.2765 1.47911 27.414 1.20419C27.5056 0.929276 27.6889 0.745987 27.9638 0.791807C28.2845 0.837626 28.4678 1.06673 28.5136 1.34164C28.5594 1.61656 28.5594 1.89147 28.5594 2.16639C28.5594 2.21221 28.6052 2.30386 28.6052 2.34967C28.6511 2.30386 28.6969 2.25804 28.7427 2.21222C28.7885 2.1664 28.7885 2.12058 28.7885 2.12058C28.9718 2.02894 29.2009 1.79985 29.3384 1.84567C29.4758 1.89149 29.6591 2.1664 29.6591 2.34967C29.6591 2.80787 29.6133 3.31187 29.5675 3.77006C29.2925 6.06103 29.0634 8.39783 28.7885 10.6888C28.4678 13.2089 28.1929 15.6831 27.8721 18.2031C27.5972 20.3108 27.3223 22.4185 26.9558 24.5262C26.635 26.4048 26.3601 28.3292 25.9477 30.2078C25.5354 31.9489 25.0313 33.6901 24.5273 35.3854C24.3899 35.9352 24.2066 36.4851 24.0691 37.0349C23.8859 37.768 23.6109 38.4095 23.0153 38.9135C22.7862 39.1426 22.5113 39.2342 22.2364 39.1426C21.9156 39.0509 21.8698 38.7302 21.8698 38.4553C21.7324 37.768 21.6407 36.9891 21.5491 36.256Z" fill="#EEEEEE"/>
<path d="M196.652 12.728C196.607 15.019 196.377 16.9434 195.965 18.8678C195.461 21.1129 194.911 23.3581 194.132 25.5116C193.399 27.436 192.3 29.1313 190.879 30.5975C190.421 31.0557 189.78 31.3306 189.23 31.743C188.771 32.0637 188.313 32.3845 187.901 32.7969C187.259 33.4841 186.664 34.2173 186.068 34.9046C185.702 35.3627 185.198 35.6835 184.648 35.9126C184.235 36.0958 183.869 36.3249 183.594 36.6457C182.769 37.5621 182.036 38.5243 181.257 39.4865C181.074 39.7156 180.891 39.8988 180.661 40.0363C180.478 40.1279 180.203 40.1738 180.066 40.0821C179.928 40.0363 179.883 39.7614 179.837 39.5781C179.791 39.4865 179.883 39.349 179.837 39.2574C179.791 39.2116 179.608 39.1199 179.562 39.1657C179.424 39.3032 179.333 39.4406 179.241 39.5781C178.875 40.1279 178.554 40.6778 178.141 41.2276C178.004 41.4109 177.775 41.5942 177.546 41.6858C176.721 42.0524 175.942 41.64 175.988 40.7236C176.034 39.7614 176.217 38.845 176.354 37.8828C176.4 37.5163 176.538 37.1497 176.492 36.7831C176.4 35.2253 176.767 33.7132 177.133 32.247C177.454 30.8266 177.729 29.4062 177.866 27.94C178.004 26.3822 178.279 24.8243 178.416 23.2664C178.554 21.7544 178.737 20.1966 178.783 18.6845C178.92 14.9273 179.333 11.216 179.974 7.55043C180.066 7.13806 180.157 6.72568 180.203 6.3133C180.341 5.48855 180.845 4.8929 181.578 4.48053C182.861 3.79324 184.098 3.10595 185.381 2.41866C186.755 1.68555 188.176 0.998275 189.596 0.310985C189.78 0.219346 189.917 0.173516 190.1 0.127697C190.742 -0.147219 191.383 0.0360692 191.796 0.540082C192.437 1.36483 193.033 2.18958 193.583 3.06014C194.224 4.15981 194.82 5.30527 195.369 6.45075C196.011 7.82533 196.423 9.29157 196.561 10.8494C196.607 11.5825 196.652 12.3156 196.652 12.728ZM193.078 12.4531C192.987 11.9033 192.941 11.3992 192.804 10.941C192.529 10.1163 192.254 9.29157 191.887 8.55846C191.337 7.4588 190.696 6.40495 190.054 5.35111C189.642 4.66382 189.367 4.61799 188.634 5.03037C188.267 5.21364 187.947 5.44272 187.626 5.67182C187.03 6.08419 186.389 6.26748 185.656 6.3133C185.427 6.3133 185.198 6.31329 185.014 6.35911C184.281 6.49657 184.006 6.8173 183.915 7.50459C183.777 8.60426 183.594 9.70393 183.456 10.8036C183.365 11.3076 183.319 11.7658 183.273 12.2698C183.136 13.7818 183.044 15.2481 182.952 16.7601C182.769 19.1885 182.586 21.6628 182.403 24.0912C182.357 24.6868 182.311 25.2825 182.265 25.8781C182.128 26.8404 181.899 27.8026 181.761 28.719C181.532 30.2768 181.349 31.8346 181.165 33.3925C181.165 33.53 181.211 33.6216 181.211 33.7591C181.303 33.7133 181.44 33.6674 181.532 33.6216C181.624 33.5758 181.715 33.4842 181.807 33.4383C182.952 32.4761 184.052 31.5139 185.198 30.5517C186.16 29.6812 187.168 28.8564 188.084 27.94C189.78 26.2905 190.696 24.1828 191.246 21.9377C191.75 19.9674 192.208 17.9972 192.62 15.9812C192.712 14.8357 192.895 13.6444 193.078 12.4531Z" fill="#EEEEEE"/>
<path d="M129.756 13.6445C129.71 15.7063 129.436 17.6766 129.023 19.6926C128.565 21.8461 128.015 23.9538 127.236 26.0157C126.411 28.1692 125.22 30.0936 123.479 31.6057C123.158 31.8806 122.7 32.1097 122.288 32.2929C121.738 32.5679 121.28 32.9344 120.913 33.3468C120.226 34.1257 119.584 34.9046 118.897 35.6836C118.622 35.9585 118.256 36.2334 117.889 36.3708C117.385 36.5999 116.927 36.8749 116.56 37.2872C115.827 38.2036 115.094 39.0742 114.361 39.9448C114.178 40.1739 113.994 40.403 113.765 40.5404C113.628 40.6321 113.307 40.6779 113.17 40.6321C113.032 40.5404 112.986 40.2655 112.895 40.0822C112.895 40.0364 112.941 39.9448 112.895 39.8531C112.895 39.7615 112.849 39.6698 112.803 39.624C112.712 39.6698 112.574 39.6698 112.528 39.7615C112.391 39.9448 112.253 40.1739 112.116 40.3571C111.795 40.8153 111.52 41.3194 111.199 41.7775C110.97 42.0983 110.604 42.3274 110.191 42.3274C109.458 42.3732 109.046 42.0525 109.046 41.3194C109.046 40.5404 109.183 39.7157 109.275 38.9367C109.367 38.112 109.413 37.2873 109.55 36.5083C109.733 35.2712 109.917 33.9882 110.191 32.7969C110.558 31.2391 110.787 29.6354 110.925 28.0318C111.016 26.6572 111.291 25.2826 111.429 23.908C111.612 22.3043 111.749 20.7007 111.841 19.097C111.978 15.2482 112.482 11.491 113.078 7.68797C113.307 6.35921 113.857 5.35117 115.048 4.75552C116.698 3.93077 118.301 3.06021 119.905 2.23546C120.822 1.77727 121.784 1.31907 122.7 0.860881C123.708 0.356869 124.258 0.494343 125.037 1.36491C125.953 2.41875 126.595 3.65588 127.282 4.893C128.015 6.17594 128.657 7.50468 129.069 8.87926C129.573 10.4371 129.802 12.0408 129.756 13.6445ZM116.056 16.3478C115.965 17.4475 115.919 18.5471 115.827 19.6468C115.781 20.2883 115.736 20.9756 115.69 21.617C115.598 22.6709 115.506 23.6789 115.415 24.7328C115.323 25.6033 115.323 26.4739 115.14 27.3445C114.728 29.5438 114.407 31.7431 114.178 33.9424C114.178 34.1257 114.178 34.309 114.178 34.4923C114.361 34.4006 114.544 34.3548 114.682 34.2174C116.789 32.3846 118.897 30.5518 120.959 28.719C121.738 28.0318 122.334 27.207 122.838 26.2906C123.662 24.8244 124.121 23.2207 124.487 21.617C125.037 19.097 125.495 16.5769 125.999 14.0569C126.228 12.9572 126.045 11.9033 125.678 10.8953C125.174 9.38328 124.35 8.05452 123.571 6.67994C123.387 6.31338 123.112 6.03848 122.883 5.71774C122.654 5.44283 122.379 5.35118 122.059 5.53446C121.6 5.80937 121.142 6.03846 120.684 6.3592C120.088 6.77157 119.447 7.00068 118.76 7.00068C118.531 7.00068 118.301 7.00067 118.118 7.04649C117.431 7.18395 117.156 7.45887 117.019 8.14616C116.927 8.74181 116.881 9.33747 116.789 9.93313C116.377 12.0408 116.148 14.1943 116.056 16.3478Z" fill="#EEEEEE"/>
<path d="M145.518 27.7109C145.839 31.0557 146.16 34.3547 146.48 37.6995C146.526 38.3868 146.618 39.1199 146.709 39.8072C146.755 40.3112 146.618 40.7694 146.343 41.1818C145.976 41.7774 145.427 41.8232 145.014 41.2734C144.693 40.861 144.373 40.4028 144.144 39.8988C143.594 38.5242 143.181 37.1038 142.952 35.6376C142.861 35.042 142.861 34.4463 142.861 33.8507C142.815 33.3925 142.769 32.8885 142.723 32.4303C142.586 31.3764 142.402 30.3226 142.219 29.2229C142.173 29.0396 142.173 28.9022 142.082 28.7647C141.99 28.5815 141.853 28.4898 141.578 28.5814C139.47 29.1771 137.408 29.7728 135.3 30.3684C135.026 30.46 134.842 30.5975 134.751 30.9182C133.926 33.3925 133.101 35.8667 132.276 38.3868C132.093 38.8908 132.047 39.4406 131.864 39.8988C131.681 40.4028 131.452 40.861 131.131 41.2734C130.856 41.64 130.398 41.7774 130.077 41.6399C129.711 41.5025 129.481 41.0901 129.481 40.5861C129.481 40.2654 129.619 39.9905 129.619 39.6697C129.619 39.4864 129.756 39.2574 129.344 39.3032C129.023 39.349 128.84 38.9825 128.886 38.5701C129.069 37.3788 129.161 36.1416 129.481 34.9962C130.26 32.3386 131.177 29.6811 131.956 27.0236C132.368 25.7407 132.643 24.4577 133.009 23.1748C133.514 21.4336 133.972 19.6467 134.522 17.9056C135.255 15.6604 136.079 13.4153 136.858 11.1701C137.546 9.15406 138.279 7.18384 139.012 5.16779C139.241 4.52632 139.516 3.88484 139.791 3.24337C140.066 2.55608 140.707 2.18953 141.303 1.86879C141.807 1.59387 142.494 1.96043 142.815 2.55608C142.952 2.831 143.044 3.10591 143.09 3.38082C143.319 5.30523 143.502 7.18383 143.731 9.10824C143.869 10.4828 144.052 11.8574 144.189 13.232C144.373 15.1106 144.556 16.9892 144.739 18.8678C144.923 20.6547 145.152 22.4417 145.335 24.2286C145.427 25.3741 145.472 26.5654 145.564 27.7567C145.564 27.6651 145.518 27.7109 145.518 27.7109ZM140.661 13.6444C140.707 13.6444 140.753 13.6444 140.753 13.6444C140.753 13.3694 140.753 13.0945 140.753 12.8196C140.753 12.728 140.661 12.6363 140.615 12.5447C140.524 12.6363 140.386 12.6821 140.341 12.7738C140.295 12.8196 140.295 12.9571 140.295 13.0487C140.066 14.6982 139.562 16.256 138.966 17.8139C137.912 20.4256 136.95 23.0831 136.263 25.7865C136.034 26.6112 136.125 26.7029 136.95 26.5196C138.325 26.1988 139.607 25.649 140.936 25.145C141.532 24.9159 141.715 24.4577 141.669 23.9079C141.669 23.2664 141.624 22.5791 141.578 21.9376C141.394 20.0132 141.165 18.043 140.982 16.1186C140.845 15.248 140.753 14.4233 140.661 13.6444Z" fill="#EEEEEE"/>
<path d="M149.138 3.97659C149.229 3.70167 149.367 3.19764 149.504 2.78527C149.596 2.51036 149.871 2.41871 150.192 2.46453C150.925 2.55617 151.475 2.96854 151.795 3.61001C152.666 5.30533 153.353 7.0923 153.536 9.01671C153.72 11.2619 153.949 13.5528 154.132 15.798C154.315 17.9056 154.544 20.0133 154.728 22.121C154.911 24.0454 155.14 25.924 155.369 27.8484C155.415 28.3524 155.507 28.9023 155.598 29.4063C155.644 29.5438 155.736 29.6354 155.827 29.7728C155.919 29.6812 156.011 29.5437 156.057 29.4521C156.24 28.4441 156.423 27.4819 156.652 26.4739C157.11 24.412 157.614 22.3959 158.164 20.3341C159.035 17.0809 159.905 13.8277 160.776 10.5746C161.326 8.46686 161.876 6.31337 162.425 4.20569C162.471 3.97659 162.563 3.74749 162.655 3.5184C162.929 3.0602 163.296 2.92274 163.754 3.19766C164.075 3.42675 164.212 3.28928 164.35 3.01437C164.579 2.60199 164.762 2.18963 165.037 1.82308C165.266 1.50234 165.587 1.13579 166.091 1.22743C166.641 1.36489 166.962 1.82307 167.007 2.32708C167.053 2.78527 167.053 3.24346 166.916 3.70166C166.595 4.84714 166.183 5.94681 165.862 7.0923C165.22 9.33744 164.671 11.5826 164.029 13.8277C163.525 15.5689 163.067 17.3558 162.517 19.097C161.876 21.2046 161.142 23.3123 160.455 25.42C160.18 26.2906 159.814 27.1153 159.585 27.9401C159.447 28.4441 159.356 28.9939 159.264 29.5438C158.989 31.1474 158.531 32.6595 157.843 34.1257C157.065 35.7294 156.606 37.4705 156.194 39.2116C156.057 39.7614 155.736 40.2655 155.232 40.5404C154.728 40.8153 154.499 40.8153 154.27 40.2654C153.949 39.5782 153.674 38.8451 153.536 38.112C152.941 35.317 152.345 32.4762 151.795 29.6812C151.246 27.0237 150.971 24.3204 150.787 21.617C150.65 19.4635 150.421 17.31 150.237 15.1565C150.1 13.5528 150.008 11.9491 149.871 10.3455C149.733 8.7876 149.504 7.22974 149.367 5.67188C149.275 5.21369 149.229 4.7097 149.138 3.97659Z" fill="#EEEEEE"/>
<path d="M166.778 37.9744C166.87 35.546 167.145 33.4383 167.511 31.2848C167.832 29.3146 168.107 27.2985 168.382 25.3283C168.611 23.7704 168.932 22.2126 169.161 20.6089C169.481 18.547 169.756 16.4393 170.077 14.3775C170.306 13.0487 170.535 11.7658 170.764 10.437C171.039 8.7417 171.314 7.0464 171.589 5.35108C171.635 4.98453 171.818 4.61795 172.001 4.29722C172.185 3.97648 172.368 3.60993 172.826 3.83902C172.872 3.83902 173.009 3.70156 173.055 3.60993C173.147 3.33501 173.193 3.01429 173.33 2.73938C173.422 2.51028 173.605 2.18954 173.926 2.28118C174.247 2.327 174.43 2.6019 174.476 2.92264C174.522 3.15173 174.476 3.38083 174.522 3.60993C174.522 3.70156 174.522 3.79322 174.522 3.88486C174.567 3.83904 174.659 3.74739 174.705 3.70157C174.751 3.65575 174.751 3.60993 174.751 3.60993C174.934 3.51829 175.163 3.33501 175.255 3.38083C175.392 3.47247 175.575 3.70158 175.575 3.88486C175.575 4.34305 175.53 4.84705 175.438 5.30525C175.255 6.81728 175.026 8.32931 174.842 9.79553C174.613 11.3992 174.384 12.9571 174.155 14.5608C174.018 15.523 173.926 16.4852 173.788 17.4474C173.468 19.3718 173.193 21.2962 172.826 23.2206C172.368 25.8323 171.818 28.4898 171.314 31.1015C171.223 31.4681 171.131 31.7888 171.039 32.1554C170.627 33.5758 170.215 34.9962 169.802 36.4166C169.573 37.1039 169.344 37.7911 169.161 38.5242C168.932 39.2115 168.611 39.853 168.061 40.3112C167.511 40.7236 167.053 40.5861 166.961 39.8988C166.87 39.2115 166.824 38.4784 166.778 37.9744Z" fill="#EEEEEE"/>
</svg>
