<svg width="33" height="45" viewBox="0 0 33 45" fill="none" xmlns="http://www.w3.org/2000/svg">
<path fill-rule="evenodd" clip-rule="evenodd" d="M6.63006 29.112C6.48143 28.9231 6.55081 28.0387 6.66372 27.1354C6.77662 26.232 7.7172 19.5115 7.95061 18.2132C8.18401 16.9149 8.85592 12.6367 9.05633 11.0942C9.25561 9.53645 9.63234 6.53053 9.77484 5.82538C9.93222 5.11906 10.0163 4.43391 9.6605 4.27674C9.31956 4.11841 9.19097 4.60657 8.95127 5.21138C8.93752 5.22788 8.98767 4.08274 9.07631 3.45892C9.16495 2.8351 9.29466 2.36228 9.01097 2.16862C8.72728 1.97495 8.43162 2.42994 8.43162 2.42994C8.43162 2.42994 8.94791 0.90898 8.53596 0.802478C8.21555 0.719643 7.94366 1.49662 7.46959 3.18391C6.57885 6.32266 5.47218 11.807 4.50266 17.5274C3.87814 21.2313 3.07813 25.3962 3.02813 27.7596C2.99301 30.1219 2.20951 33.6995 2.43352 34.0983C2.74211 34.6293 2.94267 34.3052 3.43468 34.4825C3.92669 34.6598 3.75103 35.3213 4.51574 35.138C5.51626 34.9053 6.23165 33.4459 6.87554 32.6397C7.50569 31.8501 7.98136 32.4143 8.48971 32.2048C9.01407 32.0094 9.15398 31.6746 9.6806 31.51C10.2072 31.3453 10.807 31.36 11.3591 30.7307C11.9113 30.1014 12.0867 29.8409 12.7635 29.2789C13.5527 28.6156 14.3093 28.5254 15.6901 27.9699C17.0709 27.4145 17.7442 27.007 18.3258 26.7763C18.9223 26.5445 19.7156 26.3435 19.6896 25.9909C19.6681 25.6995 19.2503 25.7169 19.2503 25.7169C19.2503 25.7169 20.0299 25.5324 19.9993 25.1184C19.9744 24.7811 19.5474 24.8762 19.5474 24.8762C19.5474 24.8762 20.6122 24.4997 20.3997 24.0537C20.1506 23.5181 18.9311 24.2306 18.9311 24.2306C18.9311 24.2306 19.3034 23.8004 19.0483 23.5891C18.6652 23.2644 17.9378 23.9537 17.1721 23.9212C16.6617 23.8995 15.8601 24.3942 14.6246 25.0925C12.8005 26.1299 9.97452 27.5852 8.90623 28.1162C7.85281 28.646 6.76155 29.2713 6.63006 29.112Z" fill="black"/>
<path fill-rule="evenodd" clip-rule="evenodd" d="M15.0668 31.4887C14.4935 31.4257 14.4527 32.2925 14.2575 33.0943C14.0623 33.8961 13.4774 36.7179 13.3541 37.6837C13.2124 38.8052 13.3756 39.3938 13.2102 40.1933C12.9159 41.6814 12.2707 44.0915 13.3406 44.3932C14.3179 44.6559 14.8223 43.5831 15.0321 43.1811C15.3095 42.6813 15.7407 41.6296 16.0165 41.716C16.4296 41.8378 15.7776 42.7371 16.3864 42.8745C16.9345 43.0011 17.4126 41.9767 17.8045 41.4062C18.1426 40.917 18.9354 39.8987 19.388 39.3389C20.0181 38.5493 20.4448 38.8551 21.061 38.2824C21.6772 37.7098 23.0893 35.3475 23.908 34.8824C24.7267 34.4172 25.3334 34.3234 26.3453 32.8253C27.5874 31.0007 28.5074 29.8799 29.8745 23.6657C31.252 17.389 31.1812 12.984 29.2812 8.7377C27.3664 4.49261 26.566 3.58379 25.971 3.42995C25.2386 3.24062 23.2712 4.5669 21.3429 5.61252C19.4158 6.67348 17.5082 7.5941 16.9478 8.51708C16.4022 9.43888 15.69 16.82 15.563 18.1408C15.4521 19.4758 15.351 21.3498 15.7573 21.3796C16.1635 21.4094 16.5433 20.2693 16.5433 20.2693C16.5433 20.2693 16.6472 20.6621 17.0696 20.5056C17.491 20.3338 17.3025 19.8088 17.7527 19.4188C18.2039 19.0442 18.4523 18.963 18.5764 18.4135C18.7142 17.8475 19.1105 14.7013 19.3863 13.3688C19.6621 12.0364 19.6189 10.2354 19.9671 9.88424C20.6636 9.18193 21.4255 9.56943 22.1124 9.34595C22.9173 9.09779 24.1763 7.70367 24.7231 8.0155C25.207 8.286 26.137 10.3413 26.5323 11.2356C27.1733 12.6196 27.8791 14.4766 27.7461 16.1217C27.6304 17.5958 26.3707 25.4671 25.0017 28.412C23.8919 30.8123 22.3458 31.9668 20.6596 33.6565C19.2805 35.0447 17.1282 37.1103 16.9383 36.9709C16.7175 36.8186 16.9038 35.6936 17.0028 35.0073C17.1018 34.321 17.5327 32.2515 17.7029 31.3129C17.873 30.3743 18.1917 29.8249 17.6562 29.6664C17.1206 29.5079 16.8452 30.4394 16.7441 30.8946C16.4625 30.9321 16.2256 30.9661 16.0192 31.414C15.8128 31.862 15.8172 32.1239 15.5173 32.1165C15.2323 32.108 15.4891 31.5327 15.0668 31.4887Z" fill="black"/>
</svg>
