<svg width="1441" height="98" viewBox="0 0 1441 98" fill="none" xmlns="http://www.w3.org/2000/svg">
<path d="M55.9224 96.3872C25.6622 99.5084 27.9515 95.475 0 95.475V0H1441V87.475C1438.5 90.475 1419.89 89.5 1403.05 89.5C1390.57 89.5 1372.61 92.8369 1357.12 92.7771L1288.71 94C1266.75 94.4548 1241.2 91.774 1216.31 89.5C1204.1 88.3842 1142.41 92.7771 1127.44 92.7771C1112.46 92.7771 1078.49 95.0511 1049.04 92.7771C1019.6 90.5032 1004.6 93.5032 980.14 95.7771C955.682 98.0511 937.199 94.8676 907.925 95.7771C896.133 96.1435 866.481 92.7771 855.5 92.7771C844.519 92.7771 832.264 96.7974 818.5 93.475C804 89.975 800.96 93.475 778 93.475H732.247C714.777 93.475 672.059 95.0511 649.099 95.0511C629.127 95.0511 621.019 96.2521 604.661 95.5032C584.548 94.5824 565.381 94.7968 550.236 96.3872C521.484 99.4068 508.873 91.9707 491.817 91.9707C479.834 91.9707 463.35 95.0511 443.884 95.0511C424.418 95.0511 413.421 94 397.948 94C382.475 94 359.891 91.8676 348.411 91.8676C336.931 91.8676 325.046 95.0511 316.061 95.0511C307.077 95.0511 281.512 90.5032 272.527 91.8676C257.347 94.1728 250.652 90.5032 236.59 90.5032C213.955 90.5032 214.453 95.0511 191.235 95.0511C181.252 95.0511 153.784 94.5032 146.297 94.5032C132.123 94.5032 114.969 94.8335 101.359 97.0511C91.8761 98.5963 83.8836 93.5032 55.9224 96.3872Z" fill="#EEEEEE"/>
</svg>
